<svg aria-hidden="true" style="position: absolute; width: 0; height: 0; overflow: hidden;" version="1.1" xmlns="http://www.w3.org/2000/svg" xmlns:xlink="http://www.w3.org/1999/xlink">
<defs>
<symbol id="icon-close" viewBox="0 0 32 32">
<path stroke-linejoin="round" stroke-linecap="round" stroke-miterlimit="4" stroke-width="2" d="M12.227 19.773l7.547-7.547M19.773 19.773l-7.547-7.547M12 29.333h8c6.667 0 9.333-2.667 9.333-9.333v-8c0-6.667-2.667-9.333-9.333-9.333h-8c-6.667 0-9.333 2.667-9.333 9.333v8c0 6.667 2.667 9.333 9.333 9.333z"></path>
</symbol>
<symbol id="icon-logo" viewBox="0 0 55 32">
<path fill="#173d33" style="fill: var(--color3, #173d33)" d="M37.829 22.771c-0.115-0.273-9.56-18.774-9.715-19.029-0.344-0.802-0.825-1.483-1.418-2.046l-0.003-0.003c-0.594-0.563-1.303-1.011-2.088-1.303l-0.043-0.014c-0.634-0.238-1.366-0.376-2.131-0.376-1.014 0-1.971 0.242-2.817 0.672l0.035-0.016c-0.774 0.392-1.427 0.913-1.956 1.541l-0.008 0.009c-0.519 0.616-0.922 1.35-1.163 2.154l-0.011 0.043c-0.153 0.505-0.241 1.085-0.241 1.685 0 0.279 0.019 0.554 0.056 0.823l-0.003-0.031c0.12 0.88 0.412 1.673 0.843 2.371l-0.015-0.026c0.115 0.273 9.155 17.981 9.31 18.236 0.131 0.31 0.267 0.571 0.42 0.819l-0.015-0.026c0.344 0.802 0.825 1.483 1.419 2.046l0.003 0.003c0.594 0.563 1.303 1.011 2.088 1.303l0.043 0.014c0.634 0.238 1.366 0.376 2.131 0.376 0.125 0 0.249-0.004 0.372-0.011l-0.017 0.001c0.893-0.052 1.72-0.285 2.462-0.662l-0.035 0.016c0.774-0.392 1.427-0.913 1.956-1.541l0.008-0.009c0.519-0.616 0.922-1.35 1.163-2.154l0.011-0.043c0.153-0.505 0.241-1.085 0.241-1.685 0-0.279-0.019-0.554-0.056-0.823l0.004 0.031c-0.12-0.88-0.412-1.673-0.843-2.372l0.015 0.026z"></path>
<path fill="#97d28b" style="fill: var(--color2, #97d28b)" d="M26.921 10.252c0.561-0.59 1.006-1.296 1.296-2.077l0.014-0.042c0.227-0.609 0.358-1.312 0.358-2.046 0-0.146-0.005-0.29-0.015-0.433l0.001 0.019c-0.063-0.884-0.306-1.698-0.694-2.423l0.016 0.032c-0.405-0.761-0.938-1.401-1.576-1.915l-0.012-0.009c-0.629-0.507-1.375-0.898-2.19-1.127l-0.044-0.010c-0.493-0.14-1.059-0.221-1.644-0.221-0.304 0-0.604 0.022-0.897 0.064l0.033-0.004c-0.887 0.127-1.685 0.424-2.39 0.858l0.027-0.015c-0.728 0.447-1.337 1.017-1.814 1.686l-0.013 0.019c-0.203 0.214-15.54 18.897-15.71 19.138-0.561 0.59-1.006 1.296-1.296 2.077l-0.014 0.042c-0.227 0.609-0.358 1.312-0.358 2.046 0 1.026 0.256 1.991 0.709 2.837l-0.016-0.032c0.405 0.761 0.938 1.401 1.576 1.915l0.012 0.009c0.629 0.507 1.376 0.898 2.19 1.127l0.044 0.010c0.493 0.14 1.059 0.221 1.644 0.221 0.304 0 0.604-0.022 0.896-0.064l-0.033 0.004c0.888-0.127 1.685-0.424 2.39-0.858l-0.027 0.015c0.728-0.447 1.337-1.017 1.813-1.686l0.013-0.019c0.203-0.214 15.54-18.897 15.71-19.138zM53.312 10.252c0.561-0.59 1.006-1.296 1.296-2.077l0.014-0.042c0.227-0.609 0.358-1.312 0.358-2.046 0-1.026-0.256-1.991-0.709-2.837l0.016 0.032c-0.405-0.761-0.938-1.401-1.576-1.915l-0.012-0.009c-0.629-0.507-1.375-0.898-2.19-1.127l-0.044-0.010c-0.493-0.14-1.059-0.221-1.644-0.221-0.304 0-0.604 0.022-0.897 0.064l0.033-0.004c-0.887 0.127-1.685 0.424-2.39 0.858l0.027-0.015c-0.728 0.447-1.337 1.017-1.814 1.686l-0.013 0.019c-0.203 0.214-15.54 18.897-15.71 19.138-0.561 0.59-1.006 1.296-1.296 2.077l-0.014 0.042c-0.227 0.609-0.358 1.312-0.358 2.046 0 0.146 0.005 0.29 0.015 0.433l-0.001-0.019c0.063 0.884 0.306 1.698 0.694 2.423l-0.016-0.032c0.405 0.761 0.938 1.401 1.576 1.915l0.012 0.009c0.629 0.507 1.375 0.898 2.19 1.127l0.044 0.010c0.493 0.14 1.059 0.221 1.644 0.221 0.304 0 0.604-0.022 0.897-0.064l-0.033 0.004c0.887-0.127 1.685-0.424 2.39-0.858l-0.027 0.015c0.728-0.447 1.337-1.017 1.813-1.686l0.013-0.019c0.203-0.214 15.54-18.897 15.71-19.138z"></path>
</symbol>
<symbol id="icon-menu" viewBox="0 0 32 32">
<path  stroke-linejoin="round" stroke-linecap="round" stroke-miterlimit="10" stroke-width="2" d="M6.667 13.333h2.667c2.667 0 4-1.333 4-4v-2.667c0-2.667-1.333-4-4-4h-2.667c-2.667 0-4 1.333-4 4v2.667c0 2.667 1.333 4 4 4zM22.667 13.333h2.667c2.667 0 4-1.333 4-4v-2.667c0-2.667-1.333-4-4-4h-2.667c-2.667 0-4 1.333-4 4v2.667c0 2.667 1.333 4 4 4zM22.667 29.333h2.667c2.667 0 4-1.333 4-4v-2.667c0-2.667-1.333-4-4-4h-2.667c-2.667 0-4 1.333-4 4v2.667c0 2.667 1.333 4 4 4zM6.667 29.333h2.667c2.667 0 4-1.333 4-4v-2.667c0-2.667-1.333-4-4-4h-2.667c-2.667 0-4 1.333-4 4v2.667c0 2.667 1.333 4 4 4z"></path>
</symbol>
</defs>
</svg>
