<svg aria-hidden="true" style="position: absolute; width: 0; height: 0; overflow: hidden;" version="1.1" xmlns="http://www.w3.org/2000/svg" xmlns:xlink="http://www.w3.org/1999/xlink">
<defs>
<symbol id="icon-tag-user" viewBox="0 0 32 32">
<path fill="none" stroke="#ed4b5e" style="stroke: var(--color1, #ed4b5e)" stroke-linejoin="round" stroke-linecap="round" stroke-miterlimit="10" stroke-width="2" d="M24 25.147h-1.013c-1.067 0-2.080 0.413-2.827 1.16l-2.28 2.253c-1.040 1.027-2.733 1.027-3.773 0l-2.28-2.253c-0.747-0.747-1.773-1.16-2.827-1.16h-1c-2.213 0-4-1.773-4-3.96v-14.56c0-2.187 1.787-3.96 4-3.96h16c2.213 0 4 1.773 4 3.96v14.547c0 2.187-1.787 3.973-4 3.973z"></path>
<path fill="none" stroke="#ed4b5e" style="stroke: var(--color1, #ed4b5e)" stroke-linejoin="round" stroke-linecap="round" stroke-miterlimit="4" stroke-width="2" d="M16.093 11.933c-0.053 0-0.133 0-0.2 0-1.4-0.053-2.507-1.187-2.507-2.6 0-1.44 1.16-2.6 2.6-2.6s2.6 1.173 2.6 2.6c0.013 1.413-1.093 2.56-2.493 2.6z"></path>
<path fill="none" stroke="#ed4b5e" style="stroke: var(--color1, #ed4b5e)" stroke-linejoin="round" stroke-linecap="round" stroke-miterlimit="4" stroke-width="2" d="M12.333 15.947c-1.773 1.187-1.773 3.12 0 4.307 2.013 1.347 5.32 1.347 7.333 0 1.773-1.187 1.773-3.12 0-4.307-2.013-1.333-5.307-1.333-7.333 0z"></path>
</symbol>
<symbol id="icon-call" viewBox="0 0 33 32">
<path stroke-linejoin="miter" stroke-linecap="butt" stroke-miterlimit="10" stroke-width="2" d="M29.96 24.44c0 0.48-0.107 0.973-0.333 1.453s-0.52 0.933-0.907 1.36c-0.653 0.72-1.373 1.24-2.187 1.573-0.8 0.333-1.667 0.507-2.6 0.507-1.36 0-2.813-0.32-4.347-0.973s-3.067-1.533-4.587-2.64c-1.533-1.12-2.987-2.36-4.373-3.733-1.373-1.387-2.613-2.84-3.72-4.36-1.093-1.52-1.973-3.040-2.613-4.547-0.64-1.52-0.96-2.973-0.96-4.36 0-0.907 0.16-1.773 0.48-2.573 0.32-0.813 0.827-1.56 1.533-2.227 0.853-0.84 1.787-1.253 2.773-1.253 0.373 0 0.747 0.080 1.080 0.24 0.347 0.16 0.653 0.4 0.893 0.747l3.093 4.36c0.24 0.333 0.413 0.64 0.533 0.933 0.12 0.28 0.187 0.56 0.187 0.813 0 0.32-0.093 0.64-0.28 0.947-0.173 0.307-0.427 0.627-0.747 0.947l-1.013 1.053c-0.147 0.147-0.213 0.32-0.213 0.533 0 0.107 0.013 0.2 0.040 0.307 0.040 0.107 0.080 0.187 0.107 0.267 0.24 0.44 0.653 1.013 1.24 1.707 0.6 0.693 1.24 1.4 1.933 2.107 0.72 0.707 1.413 1.36 2.12 1.96 0.693 0.587 1.267 0.987 1.72 1.227 0.067 0.027 0.147 0.067 0.24 0.107 0.107 0.040 0.213 0.053 0.333 0.053 0.227 0 0.4-0.080 0.547-0.227l1.013-1c0.333-0.333 0.653-0.587 0.96-0.747 0.307-0.187 0.613-0.28 0.947-0.28 0.253 0 0.52 0.053 0.813 0.173s0.6 0.293 0.933 0.52l4.413 3.133c0.347 0.24 0.587 0.52 0.733 0.853 0.133 0.333 0.213 0.667 0.213 1.040z"></path>
</symbol>
<symbol id="icon-sms" viewBox="0 0 33 32">
<path stroke-linejoin="round" stroke-linecap="round" stroke-miterlimit="10" stroke-width="2" d="M23.333 27.333h-13.333c-4 0-6.667-2-6.667-6.667v-9.333c0-4.667 2.667-6.667 6.667-6.667h13.333c4 0 6.667 2 6.667 6.667v9.333c0 4.667-2.667 6.667-6.667 6.667z"></path>
<path stroke-linejoin="round" stroke-linecap="round" stroke-miterlimit="10" stroke-width="2" d="M23.333 12l-4.173 3.333c-1.373 1.093-3.627 1.093-5 0l-4.16-3.333"></path>
</symbol>
<symbol id="icon-close" viewBox="0 0 32 32">
<path stroke-linejoin="round" stroke-linecap="round" stroke-miterlimit="4" stroke-width="2" d="M12.227 19.773l7.547-7.547M19.773 19.773l-7.547-7.547M12 29.333h8c6.667 0 9.333-2.667 9.333-9.333v-8c0-6.667-2.667-9.333-9.333-9.333h-8c-6.667 0-9.333 2.667-9.333 9.333v8c0 6.667 2.667 9.333 9.333 9.333z"></path>
</symbol>
<symbol id="icon-logo" viewBox="0 0 55 32">
<path fill="#173d33" style="fill: var(--color3, #173d33)" d="M37.829 22.771c-0.115-0.273-9.56-18.774-9.715-19.029-0.344-0.802-0.825-1.483-1.418-2.046l-0.003-0.003c-0.594-0.563-1.303-1.011-2.088-1.303l-0.043-0.014c-0.634-0.238-1.366-0.376-2.131-0.376-1.014 0-1.971 0.242-2.817 0.672l0.035-0.016c-0.774 0.392-1.427 0.913-1.956 1.541l-0.008 0.009c-0.519 0.616-0.922 1.35-1.163 2.154l-0.011 0.043c-0.153 0.505-0.241 1.085-0.241 1.685 0 0.279 0.019 0.554 0.056 0.823l-0.003-0.031c0.12 0.88 0.412 1.673 0.843 2.371l-0.015-0.026c0.115 0.273 9.155 17.981 9.31 18.236 0.131 0.31 0.267 0.571 0.42 0.819l-0.015-0.026c0.344 0.802 0.825 1.483 1.419 2.046l0.003 0.003c0.594 0.563 1.303 1.011 2.088 1.303l0.043 0.014c0.634 0.238 1.366 0.376 2.131 0.376 0.125 0 0.249-0.004 0.372-0.011l-0.017 0.001c0.893-0.052 1.72-0.285 2.462-0.662l-0.035 0.016c0.774-0.392 1.427-0.913 1.956-1.541l0.008-0.009c0.519-0.616 0.922-1.35 1.163-2.154l0.011-0.043c0.153-0.505 0.241-1.085 0.241-1.685 0-0.279-0.019-0.554-0.056-0.823l0.004 0.031c-0.12-0.88-0.412-1.673-0.843-2.372l0.015 0.026z"></path>
<path fill="#97d28b" style="fill: var(--color2, #97d28b)" d="M26.921 10.252c0.561-0.59 1.006-1.296 1.296-2.077l0.014-0.042c0.227-0.609 0.358-1.312 0.358-2.046 0-0.146-0.005-0.29-0.015-0.433l0.001 0.019c-0.063-0.884-0.306-1.698-0.694-2.423l0.016 0.032c-0.405-0.761-0.938-1.401-1.576-1.915l-0.012-0.009c-0.629-0.507-1.375-0.898-2.19-1.127l-0.044-0.010c-0.493-0.14-1.059-0.221-1.644-0.221-0.304 0-0.604 0.022-0.897 0.064l0.033-0.004c-0.887 0.127-1.685 0.424-2.39 0.858l0.027-0.015c-0.728 0.447-1.337 1.017-1.814 1.686l-0.013 0.019c-0.203 0.214-15.54 18.897-15.71 19.138-0.561 0.59-1.006 1.296-1.296 2.077l-0.014 0.042c-0.227 0.609-0.358 1.312-0.358 2.046 0 1.026 0.256 1.991 0.709 2.837l-0.016-0.032c0.405 0.761 0.938 1.401 1.576 1.915l0.012 0.009c0.629 0.507 1.376 0.898 2.19 1.127l0.044 0.010c0.493 0.14 1.059 0.221 1.644 0.221 0.304 0 0.604-0.022 0.896-0.064l-0.033 0.004c0.888-0.127 1.685-0.424 2.39-0.858l-0.027 0.015c0.728-0.447 1.337-1.017 1.813-1.686l0.013-0.019c0.203-0.214 15.54-18.897 15.71-19.138zM53.312 10.252c0.561-0.59 1.006-1.296 1.296-2.077l0.014-0.042c0.227-0.609 0.358-1.312 0.358-2.046 0-1.026-0.256-1.991-0.709-2.837l0.016 0.032c-0.405-0.761-0.938-1.401-1.576-1.915l-0.012-0.009c-0.629-0.507-1.375-0.898-2.19-1.127l-0.044-0.010c-0.493-0.14-1.059-0.221-1.644-0.221-0.304 0-0.604 0.022-0.897 0.064l0.033-0.004c-0.887 0.127-1.685 0.424-2.39 0.858l0.027-0.015c-0.728 0.447-1.337 1.017-1.814 1.686l-0.013 0.019c-0.203 0.214-15.54 18.897-15.71 19.138-0.561 0.59-1.006 1.296-1.296 2.077l-0.014 0.042c-0.227 0.609-0.358 1.312-0.358 2.046 0 0.146 0.005 0.29 0.015 0.433l-0.001-0.019c0.063 0.884 0.306 1.698 0.694 2.423l-0.016-0.032c0.405 0.761 0.938 1.401 1.576 1.915l0.012 0.009c0.629 0.507 1.375 0.898 2.19 1.127l0.044 0.010c0.493 0.14 1.059 0.221 1.644 0.221 0.304 0 0.604-0.022 0.897-0.064l-0.033 0.004c0.887-0.127 1.685-0.424 2.39-0.858l-0.027 0.015c0.728-0.447 1.337-1.017 1.813-1.686l0.013-0.019c0.203-0.214 15.54-18.897 15.71-19.138z"></path>
</symbol>
<symbol id="icon-menu" viewBox="0 0 32 32">
<path  stroke-linejoin="round" stroke-linecap="round" stroke-miterlimit="10" stroke-width="2" d="M6.667 13.333h2.667c2.667 0 4-1.333 4-4v-2.667c0-2.667-1.333-4-4-4h-2.667c-2.667 0-4 1.333-4 4v2.667c0 2.667 1.333 4 4 4zM22.667 13.333h2.667c2.667 0 4-1.333 4-4v-2.667c0-2.667-1.333-4-4-4h-2.667c-2.667 0-4 1.333-4 4v2.667c0 2.667 1.333 4 4 4zM22.667 29.333h2.667c2.667 0 4-1.333 4-4v-2.667c0-2.667-1.333-4-4-4h-2.667c-2.667 0-4 1.333-4 4v2.667c0 2.667 1.333 4 4 4zM6.667 29.333h2.667c2.667 0 4-1.333 4-4v-2.667c0-2.667-1.333-4-4-4h-2.667c-2.667 0-4 1.333-4 4v2.667c0 2.667 1.333 4 4 4z"></path>
</symbol>
</defs>
</svg>
