<svg aria-hidden="true" style="position: absolute; width: 0; height: 0; overflow: hidden;" version="1.1" xmlns="http://www.w3.org/2000/svg" xmlns:xlink="http://www.w3.org/1999/xlink">
<defs>
<symbol id="icon-menu" viewBox="0 0 32 32">
<path  stroke-linejoin="round" stroke-linecap="round" stroke-miterlimit="10" stroke-width="2" d="M6.667 13.333h2.667c2.667 0 4-1.333 4-4v-2.667c0-2.667-1.333-4-4-4h-2.667c-2.667 0-4 1.333-4 4v2.667c0 2.667 1.333 4 4 4zM22.667 13.333h2.667c2.667 0 4-1.333 4-4v-2.667c0-2.667-1.333-4-4-4h-2.667c-2.667 0-4 1.333-4 4v2.667c0 2.667 1.333 4 4 4zM22.667 29.333h2.667c2.667 0 4-1.333 4-4v-2.667c0-2.667-1.333-4-4-4h-2.667c-2.667 0-4 1.333-4 4v2.667c0 2.667 1.333 4 4 4zM6.667 29.333h2.667c2.667 0 4-1.333 4-4v-2.667c0-2.667-1.333-4-4-4h-2.667c-2.667 0-4 1.333-4 4v2.667c0 2.667 1.333 4 4 4z"></path>
</symbol>
<symbol id="icon-close" viewBox="0 0 32 32">
<path stroke-linejoin="round" stroke-linecap="round" stroke-miterlimit="4" stroke-width="2" d="M12.227 19.773l7.547-7.547M19.773 19.773l-7.547-7.547M12 29.333h8c6.667 0 9.333-2.667 9.333-9.333v-8c0-6.667-2.667-9.333-9.333-9.333h-8c-6.667 0-9.333 2.667-9.333 9.333v8c0 6.667 2.667 9.333 9.333 9.333z"></path>
</symbol>
</defs>
</svg>
